<svg version="1.1" id="Layer_1" xmlns="http://www.w3.org/2000/svg" xmlns:xlink="http://www.w3.org/1999/xlink" x="0px" y="0px"
	 width="100%" viewBox="0 0 1080 1080" enable-background="new 0 0 1080 1080" xml:space="preserve">
<path fill="#000000" opacity="1.000000" stroke="none" 
	d="
M747.000000,1081.000000 
	C498.028687,1081.000000 249.557358,1081.000000 1.043013,1081.000000 
	C1.043013,721.070251 1.043013,361.140442 1.043013,1.105327 
	C360.888184,1.105327 720.776428,1.105327 1080.832275,1.105327 
	C1080.832275,360.999939 1080.832275,720.999939 1080.832275,1081.000000 
	C969.806641,1081.000000 858.653320,1081.000000 747.000000,1081.000000 
M841.072388,468.020599 
	C825.714844,468.069519 810.357361,468.118439 794.072571,468.021271 
	C775.475220,468.021271 756.877930,468.021271 737.999634,468.021271 
	C737.999634,465.429382 738.003174,463.454803 737.999146,461.480255 
	C737.944580,434.653809 737.888916,407.827393 737.980103,380.073639 
	C737.980103,350.145630 737.980103,320.217621 737.980103,289.818481 
	C749.651978,289.818481 760.721008,289.818481 772.385010,289.818481 
	C772.385010,277.013367 772.385010,264.680817 772.385010,252.302490 
	C745.406006,252.302490 718.342163,252.302490 691.166443,252.302490 
	C691.166443,287.070435 691.166443,321.535675 691.021179,356.928131 
	C691.069702,396.952087 691.118225,436.976074 691.021057,477.927368 
	C691.014160,486.066559 690.991333,494.205780 691.003296,502.344940 
	C691.051514,535.230286 691.110474,568.115662 691.020142,601.928284 
	C691.020142,644.165771 691.020142,686.403259 691.020142,728.731079 
	C718.566528,728.731079 745.611450,728.731079 772.708618,728.731079 
	C772.708618,715.738708 772.708618,703.017761 772.708618,689.834351 
	C761.028137,689.834351 749.632324,689.834351 737.834473,689.834351 
	C737.834473,668.246643 737.834473,647.123779 737.980774,625.073547 
	C737.980774,587.136292 737.980774,549.199036 737.980774,510.833252 
	C741.720154,510.833252 744.859985,510.833252 748.927063,510.979614 
	C786.617859,510.930695 824.308716,510.881775 862.926758,510.978973 
	C866.422058,510.985840 870.051880,510.380829 873.387329,511.114441 
	C883.367615,513.309509 888.632019,506.000549 895.747803,500.773834 
	C900.169861,497.426178 904.591858,494.078552 909.516968,490.350067 
	C901.165955,483.541565 893.496277,477.184875 885.687134,471.004333 
	C884.009399,469.676361 881.841125,468.165405 879.876221,468.133423 
	C867.254150,467.928101 854.625854,468.111115 841.072388,468.020599 
M174.004776,435.158203 
	C174.336639,433.259979 174.981445,431.356659 174.950897,429.464294 
	C174.705612,414.275574 174.311981,399.089325 174.009521,383.901398 
	C173.890717,377.935516 173.888672,371.967285 173.979980,365.072937 
	C174.319778,343.479279 174.687531,321.885986 174.977325,300.291656 
	C175.040085,295.614624 177.375854,292.606506 181.593369,291.261322 
	C184.189926,290.433167 187.035080,290.077515 189.773468,290.053040 
	C203.052689,289.934357 216.333557,289.999512 229.718536,289.999512 
	C229.718536,277.110992 229.718536,264.716095 229.718536,253.006317 
	C212.873642,253.006317 196.279785,252.341278 179.770599,253.236877 
	C168.504745,253.848022 158.310242,259.178619 150.503723,267.315338 
	C141.393677,276.810730 137.706467,289.175323 137.162003,302.020508 
	C136.527618,316.986786 137.111374,332.004700 137.021225,347.927521 
	C137.069550,370.951569 137.117874,393.975616 137.002197,417.804932 
	C135.390030,423.536774 133.777863,429.268616 131.863174,435.646637 
	C123.885300,446.288849 115.985931,456.991119 107.902390,467.552429 
	C102.365463,474.786560 96.572166,481.824463 90.248878,489.235443 
	C87.807121,491.384918 89.418457,492.825195 90.993149,494.525574 
	C102.525124,506.978149 113.950905,519.529053 125.493019,531.972168 
	C133.273285,540.359741 137.110687,550.144531 137.038895,561.622437 
	C136.940109,577.414307 137.111145,593.207886 137.020737,609.927856 
	C137.013794,631.589294 136.650925,653.259521 137.184967,674.907593 
	C137.382950,682.932617 138.836548,691.170593 141.228302,698.840332 
	C144.819580,710.356689 152.560089,718.916992 164.003571,723.468140 
	C175.361542,727.985413 187.447067,727.637024 199.360214,727.897278 
	C206.275696,728.048462 213.208481,727.280945 220.136993,727.020874 
	C223.381317,726.899048 226.634003,727.000000 229.772766,727.000000 
	C229.772766,714.308594 229.772766,702.365601 229.772766,689.999390 
	C227.928497,689.999390 226.305664,689.999451 224.682816,689.999451 
	C212.352417,689.999634 200.021866,690.038574 187.691696,689.984680 
	C180.847000,689.954773 176.110489,686.559387 175.081650,680.711426 
	C174.431915,677.018311 174.091248,673.229675 174.045486,669.478638 
	C173.876877,655.653870 173.889023,641.826843 173.979630,627.073364 
	C173.987091,614.593628 173.867661,602.112122 174.037506,589.634583 
	C174.208984,577.037354 175.147659,564.430298 174.790497,551.854858 
	C174.620560,545.870789 172.222382,539.950012 170.967758,533.235718 
	C166.240433,518.372925 157.609360,506.296539 145.317581,496.699554 
	C142.677475,494.638245 140.664673,491.773468 138.079437,488.971619 
	C147.568192,477.883026 156.411011,467.595612 165.161423,457.230103 
	C165.816513,456.454041 165.810822,455.120178 166.837784,453.990204 
	C171.467468,448.886871 173.887436,442.924194 174.004776,435.158203 
M908.020386,425.876434 
	C909.013672,444.327301 915.312439,460.661163 927.894348,474.292572 
	C932.679565,479.476868 938.058167,484.113464 943.219971,489.697540 
	C942.978394,491.131195 943.211731,492.940674 942.421082,493.939880 
	C935.225220,503.033752 928.366333,512.477478 920.390869,520.849121 
	C911.543640,530.135803 908.059753,540.964722 908.067017,553.259155 
	C908.070679,559.506775 908.777771,565.753967 909.021484,572.928528 
	C908.681030,607.842590 908.270569,642.756226 908.043396,677.671021 
	C907.976562,687.935181 903.458496,689.622375 895.430237,689.890625 
	C883.114685,690.302307 870.775330,689.990723 858.446045,690.011230 
	C857.018188,690.013672 855.590515,690.175537 854.373840,690.250488 
	C854.373840,703.087402 854.373840,715.482605 854.373840,728.000427 
	C864.073181,728.000427 873.400635,728.123779 882.722961,727.959595 
	C889.643494,727.837769 896.648804,727.944275 903.458435,726.909607 
	C932.714478,722.464355 944.587463,703.773376 945.687195,678.946838 
	C946.968628,650.019470 945.888428,620.987488 945.979736,591.073608 
	C945.986694,583.096130 945.720764,575.106689 946.070435,567.144226 
	C946.494568,557.487488 948.545410,548.119263 954.404480,540.161987 
	C962.385925,529.322144 970.675964,518.709473 979.122009,507.376007 
	C984.286804,501.325226 989.451599,495.274445 994.719177,489.103210 
	C982.784485,476.291626 971.451111,464.125610 959.841431,451.330963 
	C950.628601,441.823395 945.806824,430.660431 945.931152,417.210480 
	C946.132019,395.475739 945.888123,373.736847 945.978638,351.072632 
	C945.986023,335.748199 946.434814,320.406036 945.820557,305.106567 
	C945.498047,297.072723 944.358276,288.750519 941.733765,281.203156 
	C937.449036,268.881226 929.542358,258.746765 915.918762,256.150757 
	C904.088928,253.896515 891.964905,252.954727 879.923218,252.120895 
	C871.047058,251.506271 862.094116,252.000214 853.372925,252.000214 
	C853.372925,265.086304 853.372925,277.479034 853.372925,289.999939 
	C866.566711,289.999939 879.387329,289.953766 892.207397,290.013123 
	C904.746521,290.071198 908.667908,295.145813 908.968689,307.027313 
	C909.187744,315.680969 909.112000,324.342102 909.021729,333.927185 
	C909.014465,344.731934 909.096313,355.537628 908.980652,366.341217 
	C908.771362,385.894745 908.444092,405.447021 908.020386,425.876434 
M314.214264,729.269653 
	C315.225464,728.847290 316.202576,728.200073 317.253632,728.040894 
	C322.231415,727.286743 327.332611,727.093689 332.201172,725.919006 
	C348.092896,722.084656 359.788727,713.439392 361.875641,696.147705 
	C363.035950,686.533447 362.567474,676.722473 362.979553,666.072937 
	C362.986267,618.682373 363.004730,571.291809 362.991852,523.901245 
	C362.988434,511.267578 362.888947,498.633911 362.980011,485.073059 
	C362.986450,420.253479 363.011993,355.433899 362.936218,290.614410 
	C362.932831,287.738831 362.398254,284.726715 361.445587,282.011688 
	C355.391541,264.758179 343.811249,253.847168 324.991913,253.132660 
	C307.817902,252.480652 290.599609,252.994476 273.277649,252.994476 
	C273.277649,264.884705 273.277649,277.278076 273.277649,290.144073 
	C290.281311,290.144073 307.012451,290.144073 323.999817,290.144073 
	C323.999817,292.427307 323.999847,294.237610 323.999817,296.047913 
	C323.999817,338.705597 323.986298,381.363251 324.007385,424.020935 
	C324.014282,438.014130 324.110809,452.007233 324.021301,466.927734 
	C324.014038,514.983398 323.995575,563.039062 324.007385,611.094727 
	C324.010315,623.063232 324.110962,635.031677 324.020905,647.927490 
	C324.020905,661.850403 324.020905,675.773315 324.020905,690.146729 
	C306.710632,690.146729 289.988342,690.146729 273.166901,690.146729 
	C273.166901,696.735352 273.166901,702.867554 273.021088,709.927063 
	C273.021088,729.181580 273.021088,748.436035 273.021088,767.693359 
	C286.958008,767.693359 300.346375,767.693359 313.833588,767.693359 
	C313.833588,754.924622 313.833588,742.462158 314.214264,729.269653 
M524.980042,382.074554 
	C524.980042,338.822540 524.980042,295.570526 524.980042,252.312790 
	C510.373810,252.312790 496.315430,252.312790 482.166351,252.312790 
	C482.166351,288.417328 482.166351,324.209839 482.021149,360.929382 
	C482.013824,424.631378 482.003693,488.333405 482.006317,552.035400 
	C482.006470,555.690613 482.110718,559.345886 482.021423,563.928284 
	C482.021423,605.849487 482.021423,647.770752 482.021423,689.683777 
	C466.031219,689.683777 450.638916,689.683777 434.999603,689.683777 
	C434.999603,687.556580 434.999664,685.744507 434.999634,683.932373 
	C434.999542,638.447266 435.011322,592.962219 434.991730,547.477112 
	C434.986237,534.651794 434.888947,521.826477 434.980316,508.073792 
	C434.980316,422.823639 434.980316,337.573456 434.980316,252.316254 
	C420.372742,252.316254 406.312805,252.316254 392.001617,252.316254 
	C392.001617,253.937027 392.001648,255.250793 392.001617,256.564545 
	C392.000854,332.047516 391.999237,407.530518 392.006226,483.013489 
	C392.006348,484.342621 392.110474,485.671783 392.021240,487.928192 
	C392.014038,552.872131 391.985870,617.816040 392.042908,682.759888 
	C392.047089,687.507141 392.120941,692.371643 393.111267,696.977539 
	C395.534607,708.248413 401.427216,717.189819 411.775421,723.024292 
	C420.202789,727.775818 429.494537,728.674194 438.669983,728.830994 
	C454.738495,729.105652 470.838562,728.640076 486.900482,727.924744 
	C508.084686,726.981201 524.227783,711.649414 524.745728,690.892700 
	C525.617798,655.949829 524.889038,620.966980 524.980225,585.073669 
	C524.986633,522.037048 524.996338,459.000458 524.992249,395.963867 
	C524.992004,391.643280 524.888855,387.322693 524.980042,382.074554 
M599.979797,396.073700 
	C599.979797,360.827148 599.979797,325.580597 599.979797,289.875488 
	C621.265625,289.875488 641.987854,289.875488 662.680969,289.875488 
	C662.680969,277.021912 662.680969,264.632141 662.680969,252.326904 
	C626.316833,252.326904 590.273132,252.326904 554.166748,252.326904 
	C554.166748,292.436584 554.166748,332.218964 554.021423,372.928467 
	C554.014221,412.497284 553.990356,452.066071 554.007874,491.634888 
	C554.015137,508.090332 554.110901,524.545715 554.021118,541.928406 
	C554.021118,604.161194 554.021118,666.393982 554.021118,728.740112 
	C590.551880,728.740112 626.595947,728.740112 662.715210,728.740112 
	C662.715210,715.754822 662.715210,703.032166 662.715210,689.854980 
	C642.707642,689.854980 622.980835,689.854980 601.999939,689.854980 
	C601.999939,680.168030 602.074829,670.935913 601.986328,661.705322 
	C601.685181,630.299438 601.327026,598.894104 600.983765,567.488586 
	C600.978333,566.992249 600.885559,566.496887 600.979980,565.073669 
	C600.979980,547.198914 600.979980,529.324097 600.979980,510.978607 
	C621.159058,510.978607 641.887695,510.978607 662.724915,510.978607 
	C662.724915,496.449158 662.724915,482.390228 662.724915,467.862915 
	C641.725342,467.862915 620.997131,467.862915 599.833313,467.862915 
	C599.833313,443.929504 599.833313,420.465271 599.979797,396.073700 
z"/>
<path fill="#58C2EB" opacity="1.000000" stroke="none" 
	d="
M434.833801,509.001129 
	C434.888947,521.826477 434.986237,534.651794 434.991730,547.477112 
	C435.011322,592.962219 434.999542,638.447266 434.999634,683.932373 
	C434.999664,685.744507 434.999603,687.556580 434.999603,689.683777 
	C450.638916,689.683777 466.031219,689.683777 482.021423,689.683777 
	C482.021423,647.770752 482.021423,605.849487 482.435944,563.537842 
	C487.683197,565.729736 492.535309,568.276550 497.344513,570.901917 
	C506.520477,575.911255 515.671936,580.965454 524.833618,586.000977 
	C524.889038,620.966980 525.617798,655.949829 524.745728,690.892700 
	C524.227783,711.649414 508.084686,726.981201 486.900482,727.924744 
	C470.838562,728.640076 454.738495,729.105652 438.669983,728.830994 
	C429.494537,728.674194 420.202789,727.775818 411.775421,723.024292 
	C401.427216,717.189819 395.534607,708.248413 393.111267,696.977539 
	C392.120941,692.371643 392.047089,687.507141 392.042908,682.759888 
	C391.985870,617.816040 392.014038,552.872131 392.457275,487.487579 
	C399.726135,490.672699 406.542969,494.329071 413.396271,497.915771 
	C420.523773,501.645935 427.686462,505.308838 434.833801,509.001129 
z"/>
<path fill="#57C2EC" opacity="1.000000" stroke="none" 
	d="
M600.833496,566.001038 
	C600.885559,566.496887 600.978333,566.992249 600.983765,567.488586 
	C601.327026,598.894104 601.685181,630.299438 601.986328,661.705322 
	C602.074829,670.935913 601.999939,680.168030 601.999939,689.854980 
	C622.980835,689.854980 642.707642,689.854980 662.715210,689.854980 
	C662.715210,703.032166 662.715210,715.754822 662.715210,728.740112 
	C626.595947,728.740112 590.551880,728.740112 554.021118,728.740112 
	C554.021118,666.393982 554.021118,604.161194 554.434265,541.537354 
	C563.038452,545.745728 571.177795,550.440491 579.436340,554.915344 
	C586.497742,558.741455 593.695862,562.315491 600.833496,566.001038 
z"/>
<path fill="#64C5E2" opacity="1.000000" stroke="none" 
	d="
M434.907043,508.537476 
	C427.686462,505.308838 420.523773,501.645935 413.396271,497.915771 
	C406.542969,494.329071 399.726135,490.672699 392.529663,487.023926 
	C392.110474,485.671783 392.006348,484.342621 392.006226,483.013489 
	C391.999237,407.530518 392.000854,332.047516 392.001617,256.564545 
	C392.001648,255.250793 392.001617,253.937027 392.001617,252.316254 
	C406.312805,252.316254 420.372742,252.316254 434.980316,252.316254 
	C434.980316,337.573456 434.980316,422.823639 434.907043,508.537476 
z"/>
<path fill="#61C4E5" opacity="1.000000" stroke="none" 
	d="
M600.906738,565.537354 
	C593.695862,562.315491 586.497742,558.741455 579.436340,554.915344 
	C571.177795,550.440491 563.038452,545.745728 554.506958,541.073730 
	C554.110901,524.545715 554.015137,508.090332 554.007874,491.634888 
	C553.990356,452.066071 554.014221,412.497284 554.436035,372.538086 
	C561.345703,375.726990 567.844299,379.300018 574.335022,382.887085 
	C582.837646,387.585907 591.334167,392.295868 599.833313,397.001038 
	C599.833313,420.465271 599.833313,443.929504 599.833313,467.862915 
	C620.997131,467.862915 641.725342,467.862915 662.724915,467.862915 
	C662.724915,482.390228 662.724915,496.449158 662.724915,510.978607 
	C641.887695,510.978607 621.159058,510.978607 600.979980,510.978607 
	C600.979980,529.324097 600.979980,547.198914 600.906738,565.537354 
z"/>
<path fill="#69C6DE" opacity="1.000000" stroke="none" 
	d="
M324.166321,466.000366 
	C324.110809,452.007233 324.014282,438.014130 324.007385,424.020935 
	C323.986298,381.363251 323.999817,338.705597 323.999817,296.047913 
	C323.999847,294.237610 323.999817,292.427307 323.999817,290.144073 
	C307.012451,290.144073 290.281311,290.144073 273.277649,290.144073 
	C273.277649,277.278076 273.277649,264.884705 273.277649,252.994476 
	C290.599609,252.994476 307.817902,252.480652 324.991913,253.132660 
	C343.811249,253.847168 355.391541,264.758179 361.445587,282.011688 
	C362.398254,284.726715 362.932831,287.738831 362.936218,290.614410 
	C363.011993,355.433899 362.986450,420.253479 362.566223,485.463623 
	C355.508331,482.170837 348.927429,478.366821 342.201111,474.840271 
	C336.273926,471.732635 330.184265,468.934937 324.166321,466.000366 
z"/>
<path fill="#64C5E3" opacity="1.000000" stroke="none" 
	d="
M737.833557,381.000946 
	C737.888916,407.827393 737.944580,434.653809 737.999146,461.480255 
	C738.003174,463.454803 737.999634,465.429382 737.999634,468.021271 
	C756.877930,468.021271 775.475220,468.021271 794.645386,468.404907 
	C796.333496,469.762360 797.325439,470.948761 798.582581,471.678223 
	C818.303528,483.121368 838.086487,494.458069 857.758179,505.984863 
	C859.515503,507.014618 860.601624,509.189697 861.999512,510.832825 
	C824.308716,510.881775 786.617859,510.930695 748.383911,510.578003 
	C746.562805,508.954071 745.458923,507.439606 743.978149,506.557953 
	C735.873413,501.732147 727.733826,496.958252 719.495483,492.365112 
	C710.113403,487.134369 700.614746,482.112640 691.166748,477.000031 
	C691.118225,436.976074 691.069702,396.952087 691.450012,356.488037 
	C703.080444,362.361481 714.247925,368.736816 725.502075,374.955292 
	C729.504211,377.166626 733.716980,378.996796 737.833557,381.000946 
z"/>
<path fill="#63C5E3" opacity="1.000000" stroke="none" 
	d="
M524.906921,585.537354 
	C515.671936,580.965454 506.520477,575.911255 497.344513,570.901917 
	C492.535309,568.276550 487.683197,565.729736 482.508484,563.074219 
	C482.110718,559.345886 482.006470,555.690613 482.006317,552.035400 
	C482.003693,488.333405 482.013824,424.631378 482.435730,360.538879 
	C487.683075,362.730591 492.535278,365.277252 497.344513,367.902679 
	C506.520508,372.912109 515.671936,377.966431 524.833618,383.002136 
	C524.888855,387.322693 524.992004,391.643280 524.992249,395.963867 
	C524.996338,459.000458 524.986633,522.037048 524.906921,585.537354 
z"/>
<path fill="#6AC6DD" opacity="1.000000" stroke="none" 
	d="
M599.906555,396.537354 
	C591.334167,392.295868 582.837646,387.585907 574.335022,382.887085 
	C567.844299,379.300018 561.345703,375.726990 554.508667,372.074524 
	C554.166748,332.218964 554.166748,292.436584 554.166748,252.326904 
	C590.273132,252.326904 626.316833,252.326904 662.680969,252.326904 
	C662.680969,264.632141 662.680969,277.021912 662.680969,289.875488 
	C641.987854,289.875488 621.265625,289.875488 599.979797,289.875488 
	C599.979797,325.580597 599.979797,360.827148 599.906555,396.537354 
z"/>
<path fill="#5FC4E7" opacity="1.000000" stroke="none" 
	d="
M324.093811,466.464050 
	C330.184265,468.934937 336.273926,471.732635 342.201111,474.840271 
	C348.927429,478.366821 355.508331,482.170837 362.493011,485.927246 
	C362.888947,498.633911 362.988434,511.267578 362.991852,523.901245 
	C363.004730,571.291809 362.986267,618.682373 362.545532,666.513794 
	C355.876373,663.614685 349.661072,660.236938 343.400543,656.945190 
	C337.012390,653.586182 330.579834,650.311646 324.166687,647.000183 
	C324.110962,635.031677 324.010315,623.063232 324.007385,611.094727 
	C323.995575,563.039062 324.014038,514.983398 324.093811,466.464050 
z"/>
<path fill="#58C2EB" opacity="1.000000" stroke="none" 
	d="
M945.833008,592.000916 
	C945.888428,620.987488 946.968628,650.019470 945.687195,678.946838 
	C944.587463,703.773376 932.714478,722.464355 903.458435,726.909607 
	C896.648804,727.944275 889.643494,727.837769 882.722961,727.959595 
	C873.400635,728.123779 864.073181,728.000427 854.373840,728.000427 
	C854.373840,715.482605 854.373840,703.087402 854.373840,690.250488 
	C855.590515,690.175537 857.018188,690.013672 858.446045,690.011230 
	C870.775330,689.990723 883.114685,690.302307 895.430237,689.890625 
	C903.458496,689.622375 907.976562,687.935181 908.043396,677.671021 
	C908.270569,642.756226 908.681030,607.842590 909.432800,572.536987 
	C913.457031,574.139832 917.069519,576.134888 920.682922,578.128296 
	C929.066040,582.752930 937.449646,587.376770 945.833008,592.000916 
z"/>
<path fill="#57C2ED" opacity="1.000000" stroke="none" 
	d="
M737.834473,626.000916 
	C737.834473,647.123779 737.834473,668.246643 737.834473,689.834351 
	C749.632324,689.834351 761.028137,689.834351 772.708618,689.834351 
	C772.708618,703.017761 772.708618,715.738708 772.708618,728.731079 
	C745.611450,728.731079 718.566528,728.731079 691.020142,728.731079 
	C691.020142,686.403259 691.020142,644.165771 691.435303,601.537964 
	C699.138306,605.148071 706.405151,609.187500 713.719727,613.138672 
	C721.735046,617.468506 729.794312,621.716980 737.834473,626.000916 
z"/>
<path fill="#6AC6DD" opacity="1.000000" stroke="none" 
	d="
M737.906860,380.537292 
	C733.716980,378.996796 729.504211,377.166626 725.502075,374.955292 
	C714.247925,368.736816 703.080444,362.361481 691.522644,356.024414 
	C691.166443,321.535675 691.166443,287.070435 691.166443,252.302490 
	C718.342163,252.302490 745.406006,252.302490 772.385010,252.302490 
	C772.385010,264.680817 772.385010,277.013367 772.385010,289.818481 
	C760.721008,289.818481 749.651978,289.818481 737.980103,289.818481 
	C737.980103,320.217621 737.980103,350.145630 737.906860,380.537292 
z"/>
<path fill="#5EC4E7" opacity="1.000000" stroke="none" 
	d="
M737.907593,625.537231 
	C729.794312,621.716980 721.735046,617.468506 713.719727,613.138672 
	C706.405151,609.187500 699.138306,605.148071 691.507935,601.074280 
	C691.110474,568.115662 691.051514,535.230286 691.003296,502.344940 
	C690.991333,494.205780 691.014160,486.066559 691.093933,477.463684 
	C700.614746,482.112640 710.113403,487.134369 719.495483,492.365112 
	C727.733826,496.958252 735.873413,501.732147 743.978149,506.557953 
	C745.458923,507.439606 746.562805,508.954071 747.920288,510.504822 
	C744.859985,510.833252 741.720154,510.833252 737.980774,510.833252 
	C737.980774,549.199036 737.980774,587.136292 737.907593,625.537231 
z"/>
<path fill="#56C1ED" opacity="1.000000" stroke="none" 
	d="
M173.833206,628.000671 
	C173.889023,641.826843 173.876877,655.653870 174.045486,669.478638 
	C174.091248,673.229675 174.431915,677.018311 175.081650,680.711426 
	C176.110489,686.559387 180.847000,689.954773 187.691696,689.984680 
	C200.021866,690.038574 212.352417,689.999634 224.682816,689.999451 
	C226.305664,689.999451 227.928497,689.999390 229.772766,689.999390 
	C229.772766,702.365601 229.772766,714.308594 229.772766,727.000000 
	C226.634003,727.000000 223.381317,726.899048 220.136993,727.020874 
	C213.208481,727.280945 206.275696,728.048462 199.360214,727.897278 
	C187.447067,727.637024 175.361542,727.985413 164.003571,723.468140 
	C152.560089,718.916992 144.819580,710.356689 141.228302,698.840332 
	C138.836548,691.170593 137.382950,682.932617 137.184967,674.907593 
	C136.650925,653.259521 137.013794,631.589294 137.457199,609.487427 
	C140.738983,610.348328 143.666138,611.497742 146.414642,612.978760 
	C155.588654,617.921997 164.698669,622.984131 173.833206,628.000671 
z"/>
<path fill="#69C6DE" opacity="1.000000" stroke="none" 
	d="
M137.166519,347.000214 
	C137.111374,332.004700 136.527618,316.986786 137.162003,302.020508 
	C137.706467,289.175323 141.393677,276.810730 150.503723,267.315338 
	C158.310242,259.178619 168.504745,253.848022 179.770599,253.236877 
	C196.279785,252.341278 212.873642,253.006317 229.718536,253.006317 
	C229.718536,264.716095 229.718536,277.110992 229.718536,289.999512 
	C216.333557,289.999512 203.052689,289.934357 189.773468,290.053040 
	C187.035080,290.077515 184.189926,290.433167 181.593369,291.261322 
	C177.375854,292.606506 175.040085,295.614624 174.977325,300.291656 
	C174.687531,321.885986 174.319778,343.479279 173.532898,365.530762 
	C169.525833,364.303802 165.885376,362.768555 162.421799,360.904602 
	C153.959824,356.350739 145.579620,351.644897 137.166519,347.000214 
z"/>
<path fill="#6AC6DD" opacity="1.000000" stroke="none" 
	d="
M524.906860,382.538330 
	C515.671936,377.966431 506.520508,372.912109 497.344513,367.902679 
	C492.535278,365.277252 487.683075,362.730591 482.508301,360.075317 
	C482.166351,324.209839 482.166351,288.417328 482.166351,252.312790 
	C496.315430,252.312790 510.373810,252.312790 524.980042,252.312790 
	C524.980042,295.570526 524.980042,338.822540 524.906860,382.538330 
z"/>
<path fill="#6CC7DC" opacity="1.000000" stroke="none" 
	d="
M909.167664,332.999878 
	C909.112000,324.342102 909.187744,315.680969 908.968689,307.027313 
	C908.667908,295.145813 904.746521,290.071198 892.207397,290.013123 
	C879.387329,289.953766 866.566711,289.999939 853.372925,289.999939 
	C853.372925,277.479034 853.372925,265.086304 853.372925,252.000214 
	C862.094116,252.000214 871.047058,251.506271 879.923218,252.120895 
	C891.964905,252.954727 904.088928,253.896515 915.918762,256.150757 
	C929.542358,258.746765 937.449036,268.881226 941.733765,281.203156 
	C944.358276,288.750519 945.498047,297.072723 945.820557,305.106567 
	C946.434814,320.406036 945.986023,335.748199 945.563599,351.462769 
	C940.190918,349.183105 935.259827,346.462738 930.269470,343.855652 
	C923.258545,340.192963 916.203735,336.614410 909.167664,332.999878 
z"/>
<path fill="#5CC3E9" opacity="1.000000" stroke="none" 
	d="
M173.906418,627.536987 
	C164.698669,622.984131 155.588654,617.921997 146.414642,612.978760 
	C143.666138,611.497742 140.738983,610.348328 137.530121,609.023865 
	C137.111145,593.207886 136.940109,577.414307 137.038895,561.622437 
	C137.110687,550.144531 133.273285,540.359741 125.493019,531.972168 
	C113.950905,519.529053 102.525124,506.978149 90.993149,494.525574 
	C89.418457,492.825195 87.807121,491.384918 90.888191,489.244934 
	C112.672188,501.482758 133.786392,513.764282 154.983521,525.901062 
	C160.126617,528.845825 165.542923,531.313477 170.833588,534.000549 
	C172.222382,539.950012 174.620560,545.870789 174.790497,551.854858 
	C175.147659,564.430298 174.208984,577.037354 174.037506,589.634583 
	C173.867661,602.112122 173.987091,614.593628 173.906418,627.536987 
z"/>
<path fill="#57C2EC" opacity="1.000000" stroke="none" 
	d="
M324.093811,647.463867 
	C330.579834,650.311646 337.012390,653.586182 343.400543,656.945190 
	C349.661072,660.236938 355.876373,663.614685 362.472321,666.977417 
	C362.567474,676.722473 363.035950,686.533447 361.875641,696.147705 
	C359.788727,713.439392 348.092896,722.084656 332.201172,725.919006 
	C327.332611,727.093689 322.231415,727.286743 317.253632,728.040894 
	C316.202576,728.200073 315.225464,728.847290 313.661194,729.611633 
	C306.841522,726.591125 300.600220,723.180298 294.301544,719.878967 
	C287.283844,716.200684 280.214020,712.621826 273.166901,708.999695 
	C273.166901,702.867554 273.166901,696.735352 273.166901,690.146729 
	C289.988342,690.146729 306.710632,690.146729 324.020905,690.146729 
	C324.020905,675.773315 324.020905,661.850403 324.093811,647.463867 
z"/>
<path fill="#61C4E5" opacity="1.000000" stroke="none" 
	d="
M945.906372,591.537231 
	C937.449646,587.376770 929.066040,582.752930 920.682922,578.128296 
	C917.069519,576.134888 913.457031,574.139832 909.505493,572.073425 
	C908.777771,565.753967 908.070679,559.506775 908.067017,553.259155 
	C908.059753,540.964722 911.543640,530.135803 920.390869,520.849121 
	C928.366333,512.477478 935.225220,503.033752 942.421082,493.939880 
	C943.211731,492.940674 942.978394,491.131195 943.556702,489.372009 
	C946.745605,490.352661 949.698608,491.477570 952.431335,492.998383 
	C961.275696,497.920471 970.039124,502.988007 978.833740,507.999451 
	C970.675964,518.709473 962.385925,529.322144 954.404480,540.161987 
	C948.545410,548.119263 946.494568,557.487488 946.070435,567.144226 
	C945.720764,575.106689 945.986694,583.096130 945.906372,591.537231 
z"/>
<path fill="#67C6E0" opacity="1.000000" stroke="none" 
	d="
M909.094727,333.463531 
	C916.203735,336.614410 923.258545,340.192963 930.269470,343.855652 
	C935.259827,346.462738 940.190918,349.183105 945.490356,351.926331 
	C945.888123,373.736847 946.132019,395.475739 945.931152,417.210480 
	C945.806824,430.660431 950.628601,441.823395 959.588562,451.649048 
	C957.934021,451.552826 956.388733,451.390137 955.153320,450.684692 
	C944.788879,444.766296 934.548828,438.627228 924.127869,432.811676 
	C918.962708,429.929169 913.496216,427.586639 908.166016,424.999817 
	C908.444092,405.447021 908.771362,385.894745 908.980652,366.341217 
	C909.096313,355.537628 909.014465,344.731934 909.094727,333.463531 
z"/>
<path fill="#61C4E5" opacity="1.000000" stroke="none" 
	d="
M170.900681,533.618164 
	C165.542923,531.313477 160.126617,528.845825 154.983521,525.901062 
	C133.786392,513.764282 112.672188,501.482758 91.210487,489.102264 
	C96.572166,481.824463 102.365463,474.786560 107.902390,467.552429 
	C115.985931,456.991119 123.885300,446.288849 132.377243,435.346588 
	C143.964996,441.379547 155.038666,447.712585 166.112335,454.045624 
	C165.810822,455.120178 165.816513,456.454041 165.161423,457.230103 
	C156.411011,467.595612 147.568192,477.883026 138.079437,488.971619 
	C140.664673,491.773468 142.677475,494.638245 145.317581,496.699554 
	C157.609360,506.296539 166.240433,518.372925 170.900681,533.618164 
z"/>
<path fill="#64C5E2" opacity="1.000000" stroke="none" 
	d="
M908.093201,425.438110 
	C913.496216,427.586639 918.962708,429.929169 924.127869,432.811676 
	C934.548828,438.627228 944.788879,444.766296 955.153320,450.684692 
	C956.388733,451.390137 957.934021,451.552826 959.726746,451.963379 
	C971.451111,464.125610 982.784485,476.291626 994.719177,489.103210 
	C989.451599,495.274445 984.286804,501.325226 978.977905,507.687744 
	C970.039124,502.988007 961.275696,497.920471 952.431335,492.998383 
	C949.698608,491.477570 946.745605,490.352661 943.529907,489.023071 
	C938.058167,484.113464 932.679565,479.476868 927.894348,474.292572 
	C915.312439,460.661163 909.013672,444.327301 908.093201,425.438110 
z"/>
<path fill="#64C5E3" opacity="1.000000" stroke="none" 
	d="
M137.093872,347.463867 
	C145.579620,351.644897 153.959824,356.350739 162.421799,360.904602 
	C165.885376,362.768555 169.525833,364.303802 173.459656,365.994354 
	C173.888672,371.967285 173.890717,377.935516 174.009521,383.901398 
	C174.311981,399.089325 174.705612,414.275574 174.950897,429.464294 
	C174.981445,431.356659 174.336639,433.259979 173.563599,435.555389 
	C168.185120,433.257629 163.281754,430.498016 158.302353,427.883240 
	C151.286514,424.199127 144.214310,420.622345 137.166214,416.999664 
	C137.117874,393.975616 137.069550,370.951569 137.093872,347.463867 
z"/>
<path fill="#56C1ED" opacity="1.000000" stroke="none" 
	d="
M273.093994,709.463379 
	C280.214020,712.621826 287.283844,716.200684 294.301544,719.878967 
	C300.600220,723.180298 306.841522,726.591125 313.470856,729.976685 
	C313.833588,742.462158 313.833588,754.924622 313.833588,767.693359 
	C300.346375,767.693359 286.958008,767.693359 273.021088,767.693359 
	C273.021088,748.436035 273.021088,729.181580 273.093994,709.463379 
z"/>
<path fill="#64C5E2" opacity="1.000000" stroke="none" 
	d="
M862.463135,510.905884 
	C860.601624,509.189697 859.515503,507.014618 857.758179,505.984863 
	C838.086487,494.458069 818.303528,483.121368 798.582581,471.678223 
	C797.325439,470.948761 796.333496,469.762360 795.109009,468.477966 
	C810.357361,468.118439 825.714844,468.069519 841.615479,468.421570 
	C843.588074,470.127228 844.841858,471.730652 846.474182,472.690399 
	C862.651672,482.202301 878.891724,491.607666 895.114075,501.043182 
	C888.632019,506.000549 883.367615,513.309509 873.387329,511.114441 
	C870.051880,510.380829 866.422058,510.985840 862.463135,510.905884 
z"/>
<path fill="#67C6E0" opacity="1.000000" stroke="none" 
	d="
M895.430908,500.908508 
	C878.891724,491.607666 862.651672,482.202301 846.474182,472.690399 
	C844.841858,471.730652 843.588074,470.127228 842.079102,468.494537 
	C854.625854,468.111115 867.254150,467.928101 879.876221,468.133423 
	C881.841125,468.165405 884.009399,469.676361 885.687134,471.004333 
	C893.496277,477.184875 901.165955,483.541565 909.516968,490.350067 
	C904.591858,494.078552 900.169861,497.426178 895.430908,500.908508 
z"/>
<path fill="#63C5E3" opacity="1.000000" stroke="none" 
	d="
M137.084198,417.402283 
	C144.214310,420.622345 151.286514,424.199127 158.302353,427.883240 
	C163.281754,430.498016 168.185120,433.257629 173.478271,435.976135 
	C173.887436,442.924194 171.467468,448.886871 166.475067,454.017914 
	C155.038666,447.712585 143.964996,441.379547 132.528503,435.023499 
	C133.777863,429.268616 135.390030,423.536774 137.084198,417.402283 
z"/>
</svg>